<svg width="344.95px" height="344.95px" viewBox="0 -93.94 344.95 344.95" xmlns="http://www.w3.org/2000/svg">
  <g id="Group_6" data-name="Group 6" transform="translate(-16.679 -159.086)">
    <path id="Path_87" data-name="Path 87" d="M344.213,159.086h1.339a102.731,102.731,0,0,1,16.077,8.037c-33.46,12.087-67.161,23.934-100.137,36.505-1.1.458-.933,2.192-2.344,2.344-1.537-.087-1.618-.356-3.014,0-4.082,3.733-10.767,4.861-14.4,9.042,5.549,5.376,16.261,5.418,27.128,4.689,6.5-.435,13.417-2.512,20.094-1.34,5.868,1.031,12.185,6.044,19.425,7.034,4.615.63,9.9-.978,14.4,0,2.083.453,5.511,2.883,8.372,4.353,7.59,3.9,18.128,8.023,24.449,13.061,2.995,2.387,6.5,6.077,4.353,10.717a22.262,22.262,0,0,1-1.675,2.679c-.839,1.056-2.547,1.322-3.348,2.344-1.146,1.463-.677,2.853-2.011,3.684-2.7,1.685-12.117,3.107-15.739,4.019-15.653,3.943-32.489,7.873-47.222,11.722.226,2.032,2,3.238,3.015,5.358,2,4.182,3.084,9.49,5.023,13.731,2.287-.825,4.1-.924,6.029-2.009,2.211-1.243,3.41-4.455,6.028-4.018-.162,3.548-4.13,5.437-7.033,6.7-3.415,1.483-7.771,2.139-11.387,3.015-7.473,1.809-15.861,3.645-23.108,5.358-15.388,3.637-31.315,8.6-46.551,10.047,3.446-1.13,8.069-1.085,9.712-4.019-1.413-6.291-3.332-12.075-6.7-16.409,1.013-.564,2.916-1.6,2.344-2.68-6.217.7-11.5,2.338-17.415,3.35-1.353.838,1.45,2.077.335,2.678-2.037.436-5.432,3.115-6.7.334,2.241-.438,5.11-.248,6.028-2.009-1.411-1.165-6.022-.4-6.363,1.675-.146-1.752-.858-2.938-1-4.689-12.673-1.012-24.827-1.78-37.174-2.679-18.769-1.366-36.852,2.6-55.929,3.014,1.386,4.308,3.974,7.413,5.694,11.387-1.546,2.249-2.25,5.341-4.353,7.033-4.06.74-8.723.878-13.062,1.34-2.9-5.392-1.913-16.011-8.373-17.75-2.808-.757-5.4.829-9.376.334-.665,1.568-2.543,1.923-5.024,1.675-4.735,2.234-17.914,15.732-18.754.669-2.558-.121-5.767.408-7.369-.669-.914-1.083,1.53-.95,1.005-2.679-1.75-2.614-3.049-6.717-5.023-11.387-1.465-3.465-5.235-9.076-4.688-11.721.475-2.3,3.4-1.778,4.353-3.685-2.179-.28-2.669,1.127-4.353,1.34-4,6.942-7.995,13.886-12.728,20.1-6.346-3.59-9.953-9.918-10.381-19.425,8.469-1.131,16.575-2.626,25.118-3.684-.173-1.56-.656-2.986.334-4.019.28-.949,2.059-.4,2.68-1,4.084-7.75,8.567-15.1,13.061-22.439,8.465,2.921,14.04,8.734,14.736,19.425-8.619,2.1-17.728,3.706-25.453,6.7,4.919,2.461,10.82,9.107,16.41,13.061,2.54-.334,4.123,1.407,6.364.336-.695-4.108-2.737-8.649-3.014-12.057,5.154-.649,10.494-1.115,15.74-1.675,1.912,3.112,3.446,6.6,5.358,9.712,10.1-2.067,19.617-4.719,29.806-6.7a2.835,2.835,0,0,1,5.359-1.341c5.454-1.8,11.887-2.625,17.415-4.353.478-2.2.515-4.844,3.348-4.69,1.079.708.253,3.321,1.675,3.684,5.211-1.7,10.515-1.415,14.736-3.349,2.873-1.316,5.761-3.882,8.372-5.693,2.757-1.912,5.769-3.832,7.7-6.363-2.892-.325-4.5.633-6.7,1.005-.818-2.307-1.978-4.274-2.01-7.368-14.629,5.688-28.893,11.741-43.536,17.415-4.9-2.8-10.872-4.535-15.742-7.368,32.425-10.016,68.633-17.22,100.471-27.127a16.617,16.617,0,0,0,5.024-3.349c4.442.9,9.613-1.544,12.392-4.354-18.871-10.038-42.224-17.465-63.632-25.453-18.284-6.821-36.394-13.947-54.255-20.763,2.869-.872,5.747-2.366,9.043-3.684,2.565-1.026,6.627-3.429,9.043-3.349,2.518.083,8.082,3.89,11.052,5.358,24.594,12.163,51.161,26.507,75.017,37.845,6.168,1.757,11.537,4.315,17.415,6.363.906-3.667,1.679-7.63,5.024-7.7s3.416,3.588,5.693,5.693c3.314-1.931,8.707-1.785,10.717-5.023a8.38,8.38,0,0,0,3.349-.335C284.188,189.038,314.794,174.656,344.213,159.086Zm-43.538,67.65c-.074-.633.378-.739.335-1.339-2.24-.885-4.234-2.017-7.033-2.345C294.615,225.876,298.254,225.7,300.675,226.736Zm2.01,1.005c.946-.277.868.472,1.674.335.139-1.366-.343-2.114-1.674-2.01Zm9.377.669c.856,4.726,8.633,2.532,13.731,3.014C325.173,226.732,316.066,226.538,312.062,228.41Zm-25.787.335a36.858,36.858,0,0,0,.67,7.7c3.023,1.316,7.435.092,10.047.334a23.378,23.378,0,0,0-1.005,2.679,13.937,13.937,0,0,1,4.019-.334c-.588-1.976.8-3.544.334-6.364-2.242.647-2.3-1.408-1.674-2.679C295.559,227.875,291.047,227.973,286.275,228.745ZM333.5,242.476c.186-1.219.81-2,.334-3.014-.622-.606-2.4-.056-2.68-1-.074-.634.378-.739.336-1.34-1.9-.668-2.73-2.4-5.694-2.009-.869,2.144-.382,5.644-3.684,5.358-.054,1.059.89,1.119.67,2.344M270.2,283.334c2.722,1.375,2.659,4.22,3.014,8.373-1.408.275-2.306,1.461-3.684,1.675-1.395.216-2.736-.821-4.018-.671-.624.074-2.169,1.306-3.35,1.675a21.31,21.31,0,0,1-8.372,1.005c-.2,3.6-7.287,2.088-9.378,2.679a5.251,5.251,0,0,1,.67-3.349c-1.7-.022-2.774.576-4.688.335-.763-2.655.337-3.7,1.338-5.359a67.716,67.716,0,0,0-7.7,1.675c.324,7.937,3.884,12.638,5.358,19.424,17.258-4.176,35.211-7.657,51.911-12.391-2.164-5.54-3.112-12.294-6.7-16.41.275-1.176,2.154-.748,1.674-2.68C280.793,280.532,274.991,281.429,270.2,283.334Zm-38.849,10.048a3.621,3.621,0,0,0,2.009,1.674c-.232-1.219-.015-2.887-1-3.349C232.252,292.5,231.192,292.33,231.351,293.382ZM203.889,297.4c1.195-1.037,3.992-.473,4.689-2.009-.743-1.378-3.889-.354-5.694-.67C203.376,295.458,202.845,297.217,203.889,297.4ZM57.2,299.075c.539,13.5,12.677,1.11,17.08-1.34C68.445,298.039,63.225,298.957,57.2,299.075Z" fill-rule="evenodd"/>
  </g>
</svg>
